<?xml version="1.0" encoding="UTF-8"?>
<svg xmlns="http://www.w3.org/2000/svg" xmlns:xlink="http://www.w3.org/1999/xlink" width="500px" height="486px" viewBox="0 0 481 468" version="1.1">
<g id="surface1">
<path style="fill-rule:evenodd;fill:rgb(90.980392%,55.686275%,100%);fill-opacity:1;stroke-width:0.24;stroke-linecap:round;stroke-linejoin:round;stroke:rgb(100%,100%,100%);stroke-opacity:1;stroke-miterlimit:3;" d="M -0.0033258 702.478272 L 11.337298 691.139708 L 11.341711 696.809892 L 418.229121 696.808726 L 418.228071 702.481036 L 418.232484 708.151219 L 11.337481 708.149037 L 11.341894 713.819221 Z M -0.0033258 702.478272 " transform="matrix(0.241171,-0.620939,0.619832,0.241602,-305.171526,194.293377)"/>
<path style="fill-rule:evenodd;fill:rgb(50.196078%,70.196078%,100%);fill-opacity:1;stroke-width:0.24;stroke-linecap:round;stroke-linejoin:round;stroke:rgb(100%,100%,100%);stroke-opacity:1;stroke-miterlimit:3;" d="M 0.00233779 702.481195 L 11.342598 691.14121 L 11.339752 696.809612 L 190.629844 696.812499 L 190.626999 702.480902 L 190.628956 708.152684 L 11.338865 708.149796 L 11.340822 713.821578 Z M 0.00233779 702.481195 " transform="matrix(-0.543936,0.383422,-0.382739,-0.544907,462.270311,451.790014)"/>
<path style="fill-rule:evenodd;fill:rgb(100%,50.196078%,50.196078%);fill-opacity:1;stroke-width:0.24;stroke-linecap:round;stroke-linejoin:round;stroke:rgb(100%,100%,100%);stroke-opacity:1;stroke-miterlimit:3;" d="M 0.00227301 702.47926 L 11.340745 691.141439 L 11.341737 696.809221 L 193.452027 696.808744 L 193.447564 702.478674 L 193.450707 708.15192 L 11.340416 708.152397 L 11.341408 713.820179 Z M 0.00227301 702.47926 " transform="matrix(-0.243651,0.619966,-0.618861,-0.244086,851.558099,410.823459)"/>
<path style="fill-rule:evenodd;fill:rgb(90.980392%,55.686275%,100%);fill-opacity:1;stroke-width:0.24;stroke-linecap:round;stroke-linejoin:round;stroke:rgb(100%,100%,100%);stroke-opacity:1;stroke-miterlimit:3;" d="M 0.000116612 702.477062 L 11.340761 691.13826 L 11.342115 696.8089 L 168.951525 696.809556 L 168.952879 702.480196 L 168.950691 708.146163 L 11.3366 708.149054 L 11.337953 713.819693 Z M 0.000116612 702.477062 " transform="matrix(-0.530065,-0.402446,0.401729,-0.531011,104.442984,515.117106)"/>
<path style="fill-rule:evenodd;fill:rgb(100%,86.666667%,33.333333%);fill-opacity:1;stroke-width:0.24;stroke-linecap:round;stroke-linejoin:round;stroke:rgb(100%,100%,100%);stroke-opacity:1;stroke-miterlimit:3;" d="M -0.00127778 702.477546 L 11.339863 691.139029 L 11.339863 696.808288 L 400.538908 696.808288 L 400.538908 708.152667 L 11.339863 708.152667 L 11.339863 713.821925 Z M -0.00127778 702.477546 " transform="matrix(0.665098,0,0,0.666285,108.567256,-278.741909)"/>
<path style="fill-rule:evenodd;fill:rgb(50.196078%,70.196078%,100%);fill-opacity:1;stroke-width:0.24;stroke-linecap:round;stroke-linejoin:round;stroke:rgb(100%,100%,100%);stroke-opacity:1;stroke-miterlimit:3;" d="M 0.00195704 702.482097 L 11.339831 691.140524 L 11.34257 696.811163 L 387.050201 696.80942 L 387.05294 702.480059 L 387.047457 708.149575 L 11.339826 708.151318 L 11.339023 713.817285 Z M 0.00195704 702.482097 " transform="matrix(-0.529967,-0.402576,0.401859,-0.530913,28.940804,751.137367)"/>
<path style="fill-rule:evenodd;fill:rgb(100%,50.196078%,50.196078%);fill-opacity:1;stroke-width:0.24;stroke-linecap:round;stroke-linejoin:round;stroke:rgb(100%,100%,100%);stroke-opacity:1;stroke-miterlimit:3;" d="M -0.000477012 702.480684 L 11.340551 691.139605 L 11.341833 696.809216 L 411.031525 696.810067 L 411.032807 702.479679 L 411.028549 708.14737 L 11.338857 708.146519 L 11.338214 713.82168 Z M -0.000477012 702.480684 " transform="matrix(0.217875,0.629521,-0.628399,0.218264,696.118069,-49.951244)"/>
<path style="fill-rule:evenodd;fill:rgb(100%,86.666667%,33.333333%);fill-opacity:1;stroke-width:0.24;stroke-linecap:round;stroke-linejoin:round;stroke:rgb(100%,100%,100%);stroke-opacity:1;stroke-miterlimit:3;" d="M -0.00145405 702.481577 L 11.338754 691.139116 L 11.339155 696.812028 L 405.74894 696.810518 L 405.752843 702.478729 L 405.748533 708.148133 L 11.338748 708.149643 L 11.339148 713.822556 Z M -0.00145405 702.481577 " transform="matrix(0.533413,-0.397982,0.397273,0.534366,-116.400114,2.797109)"/>
<path style="fill-rule:evenodd;fill:rgb(52.941176%,87.058824%,52.941176%);fill-opacity:1;stroke-width:0.24;stroke-linecap:round;stroke-linejoin:round;stroke:rgb(100%,100%,100%);stroke-opacity:1;stroke-miterlimit:3;" d="M 0.00120951 702.482136 L 11.34235 691.137757 L 11.34235 696.812878 L 223.94028 696.812878 L 223.94028 708.151394 L 11.34235 708.151394 L 11.34235 713.820652 Z M 0.00120951 702.482136 " transform="matrix(-0.665098,0.000000000000000082,-0.000000000000000081,-0.666285,314.067211,879.28403)"/>
<path style="fill-rule:evenodd;fill:rgb(52.941176%,87.058824%,52.941176%);fill-opacity:1;stroke-width:0.24;stroke-linecap:round;stroke-linejoin:round;stroke:rgb(100%,100%,100%);stroke-opacity:1;stroke-miterlimit:3;" d="M 0.00102279 702.482623 L 11.339294 691.136776 L 11.337807 696.811578 L 191.380612 696.811746 L 191.381378 708.150215 L 11.338573 708.150047 L 11.338956 713.819282 Z M 0.00102279 702.482623 " transform="matrix(0.211799,0.631599,-0.630473,0.212177,504.329772,92.198472)"/>
<path style="fill-rule:evenodd;fill:rgb(83.529412%,89.803922%,100%);fill-opacity:1;stroke-width:3;stroke-linecap:round;stroke-linejoin:round;stroke:rgb(0%,43.921569%,75.294118%);stroke-opacity:1;stroke-miterlimit:3;" d="M -0.000990977 636.699292 C 0.310288 600.590749 29.670393 571.482303 65.778798 571.482303 C 101.893078 571.482303 131.253182 600.590749 131.558588 636.699292 C 131.253182 672.807835 101.893078 701.922144 65.778798 701.922144 C 29.670393 701.922144 0.310288 672.807835 -0.000990977 636.699292 Z M -0.000990977 636.699292 " transform="matrix(0.665098,0,0,0.666285,12.969409,-235.192166)"/>
<path style="fill-rule:evenodd;fill:rgb(100%,100%,100%);fill-opacity:1;stroke-width:1.19531;stroke-linecap:butt;stroke-linejoin:miter;stroke:rgb(49.803922%,49.803922%,49.803922%);stroke-opacity:1;stroke-miterlimit:3;" d="M 56.159712 610.262767 C 56.159712 606.862384 53.411057 604.112765 50.010477 604.112765 C 46.609896 604.112765 43.861241 606.862384 43.861241 610.262767 L 43.861241 650.21726 C 43.861241 651.911588 42.48104 653.289329 40.78956 653.289329 C 39.098079 653.289329 37.717878 651.911588 37.717878 650.21726 L 37.717878 616.401043 C 37.717878 613.000661 34.969223 610.262767 31.568643 610.262767 C 28.168063 610.262767 25.419407 613.000661 25.419407 616.401043 L 25.419407 668.661403 C 25.419407 668.948677 25.419407 669.259401 25.4429 669.552538 L 13.8081 658.477844 C 10.742292 655.558205 5.879286 655.681323 2.942688 658.747529 C 0.00021703 661.819599 0.129427 666.691526 3.212855 669.628753 L 24.802722 690.177616 C 33.0898 698.080573 44.090296 702.47762 55.5489 702.47762 L 59.237267 702.47762 C 77.908155 702.47762 93.049253 687.340055 93.049253 668.661403 L 93.049253 628.701047 C 93.049253 625.300665 90.300598 622.551045 86.900017 622.551045 C 83.499437 622.551045 80.750782 625.300665 80.750782 628.701047 L 80.750782 650.21726 C 80.750782 651.911588 79.370581 653.289329 77.679101 653.289329 C 75.98762 653.289329 74.607419 651.911588 74.607419 650.21726 L 74.607419 616.401043 C 74.607419 613.000661 71.858764 610.262767 68.458184 610.262767 C 65.057603 610.262767 62.308948 613.000661 62.308948 616.401043 L 62.308948 650.21726 C 62.308948 651.911588 60.928747 653.289329 59.237267 653.289329 C 57.539913 653.289329 56.159712 651.911588 56.159712 650.21726 Z M 56.159712 610.262767 " transform="matrix(0.665098,0,0,0.666285,25.777199,-246.249771)"/>
<path style="fill-rule:evenodd;fill:rgb(96.470588%,83.529412%,100%);fill-opacity:1;stroke-width:3;stroke-linecap:round;stroke-linejoin:round;stroke:rgb(90.980392%,55.686275%,100%);stroke-opacity:1;stroke-miterlimit:3;" d="M 0.00136166 636.700254 C 0.306768 600.591711 29.666872 571.477402 65.781151 571.477402 C 101.889557 571.477402 131.249661 600.591711 131.560941 636.700254 C 131.249661 672.808797 101.889557 701.923106 65.781151 701.923106 C 29.666872 701.923106 0.306768 672.808797 0.00136166 636.700254 Z M 0.00136166 636.700254 " transform="matrix(0.665098,0,0,0.666285,199.452219,-367.399838)"/>
<path style="fill-rule:evenodd;fill:rgb(100%,100%,100%);fill-opacity:1;stroke-width:1.36607;stroke-linecap:butt;stroke-linejoin:miter;stroke:rgb(49.803922%,49.803922%,49.803922%);stroke-opacity:1;stroke-miterlimit:3;" d="M 21.522595 604.107864 C 16.430534 604.107864 12.301678 608.241087 12.301678 613.329935 L 12.301678 637.918218 C 12.301678 639.612546 10.90973 641.002013 9.21825 641.002013 C 7.532643 641.002013 6.152442 639.612546 6.152442 637.918218 L 6.152442 632.788331 L 4.419849 634.230562 C 1.612462 636.581516 -0.00266695 640.040525 -0.00266695 643.687142 L -0.00266695 650.992102 C -0.00266695 658.291198 3.251083 665.209218 8.859985 669.881812 L 18.439167 677.890299 L 18.439167 696.328579 C 18.439167 699.728962 21.187822 702.478581 24.588403 702.478581 L 55.328708 702.478581 C 58.741034 702.478581 61.477943 699.728962 61.477943 696.328579 L 61.477943 676.102167 C 70.487425 672.449687 76.848096 663.608693 76.848096 653.290291 L 76.848096 631.779941 C 76.848096 626.679368 72.71924 622.552007 67.627179 622.552007 C 65.248535 622.552007 63.098945 623.46073 61.460324 624.920549 C 61.102059 620.148288 57.120032 616.402005 52.2629 616.402005 C 49.878382 616.402005 47.728793 617.310728 46.090171 618.770547 C 45.731906 613.998286 41.74988 610.257866 36.892747 610.257866 C 34.50823 610.257866 32.35864 611.160726 30.720019 612.620545 C 30.361754 607.848284 26.379727 604.107864 21.522595 604.107864 Z M 21.522595 604.107864 " transform="matrix(0.665098,0,0,0.666285,217.646305,-378.457443)"/>
<path style="fill-rule:evenodd;fill:rgb(100%,96.470588%,83.529412%);fill-opacity:1;stroke-width:3;stroke-linecap:round;stroke-linejoin:round;stroke:rgb(100%,86.666667%,33.333333%);stroke-opacity:1;stroke-miterlimit:3;" d="M -0.00119755 636.698075 C 0.310082 600.589532 29.670186 571.481086 65.778592 571.481086 C 101.892871 571.481086 131.252975 600.589532 131.558381 636.698075 C 131.252975 672.812481 101.892871 701.920927 65.778592 701.920927 C 29.670186 701.920927 0.310082 672.812481 -0.00119755 636.698075 Z M -0.00119755 636.698075 " transform="matrix(0.665098,0,0,0.666285,380.606265,-234.843698)"/>
<path style="fill-rule:evenodd;fill:rgb(100%,100%,100%);fill-opacity:1;stroke-width:1.19531;stroke-linecap:butt;stroke-linejoin:miter;stroke:rgb(49.803922%,49.803922%,49.803922%);stroke-opacity:1;stroke-miterlimit:3;" d="M 7.271026 658.860377 C 3.247888 658.860377 0.0000104545 662.120054 0.0000104545 666.13016 C 0.0000104545 670.151992 3.247888 673.399943 7.271026 673.399943 L 40.019965 673.399943 C 38.639764 674.947704 37.799897 676.98207 37.799897 679.221632 C 37.799897 683.818011 41.347307 687.581883 45.852048 687.921921 C 44.448354 689.469681 43.620233 691.521636 43.620233 693.761199 C 43.620233 698.568636 47.520035 702.479075 52.341929 702.479075 L 69.791192 702.479075 C 82.641744 702.479075 93.049047 692.072733 93.049047 679.221632 L 93.049047 658.661044 C 93.049047 651.361948 90.141815 644.338399 84.979276 639.16161 C 80.838673 635.022524 75.218025 632.689158 69.368322 632.689158 L 61.057751 632.689158 C 57.187315 632.689158 53.921818 635.221857 52.782418 638.71018 L 66.320134 643.019285 C 67.841292 643.511755 68.698778 645.141593 68.211303 646.671765 C 67.717954 648.190212 66.079333 649.052033 64.552302 648.559564 L 52.341929 644.672575 L 52.341929 644.690163 L 15.270319 633.017471 C 11.429249 631.821474 7.359124 633.949645 6.1375 637.778006 C 4.927621 641.618093 7.071338 645.692689 10.900661 646.900412 L 48.982461 658.860377 Z M 7.271026 658.860377 " transform="matrix(0.665098,0,0,0.666285,393.414056,-255.133553)"/>
<path style="fill-rule:evenodd;fill:rgb(100%,83.529412%,83.529412%);fill-opacity:1;stroke-width:3;stroke-linecap:round;stroke-linejoin:round;stroke:rgb(100%,50.196078%,50.196078%);stroke-opacity:1;stroke-miterlimit:3;" d="M -0.00214199 636.697864 C 0.309137 600.589321 29.669242 571.480875 65.777647 571.480875 C 101.891927 571.480875 131.252031 600.589321 131.557437 636.697864 C 131.252031 672.81227 101.891927 701.920716 65.777647 701.920716 C 29.669242 701.920716 0.309137 672.81227 -0.00214199 636.697864 Z M -0.00214199 636.697864 " transform="matrix(0.665098,0,0,0.666285,319.333456,-12.991995)"/>
<path style="fill-rule:evenodd;fill:rgb(100%,100%,100%);fill-opacity:1;stroke-width:1.0625;stroke-linecap:butt;stroke-linejoin:miter;stroke:rgb(49.803922%,49.803922%,49.803922%);stroke-opacity:1;stroke-miterlimit:3;" d="M 41.83131 609.299851 C 40.950331 606.040174 37.608482 604.111337 34.348859 604.990746 C 31.089235 605.85843 29.162827 609.200185 30.037933 612.471587 L 40.128083 650.157204 C 40.609685 651.91016 39.270597 653.62794 37.461652 653.62794 C 36.240028 653.62794 35.171106 652.830608 34.812841 651.658063 L 26.508143 624.372925 C 25.527319 621.148425 22.120866 619.342705 18.890608 620.310055 C 15.672097 621.277405 13.851407 624.701238 14.83223 627.919876 L 26.807676 667.311547 C 27.271658 668.818268 25.439221 669.93805 24.288075 668.859308 L 13.722196 658.781278 C 10.668135 655.879227 5.840368 655.990619 2.92139 659.050963 C 0.00241158 662.099582 0.131622 666.93047 3.191557 669.850109 L 24.640467 690.269991 C 32.857067 698.108459 43.79883 702.482054 55.169337 702.482054 L 58.810718 702.482054 C 58.828338 702.482054 58.828338 702.458603 58.828338 702.458603 C 58.828338 702.458603 58.85183 702.441015 58.85183 702.441015 C 69.981536 701.772664 79.578337 694.198019 82.761609 683.422325 L 98.260972 630.939181 C 99.21243 627.708818 97.362373 624.320161 94.137989 623.341085 C 90.907731 622.367872 87.507151 624.238083 86.538074 627.468446 L 79.349283 651.927748 C 79.038003 652.942 78.127658 653.62794 77.058736 653.62794 C 75.549325 653.62794 74.421672 652.238473 74.727078 650.74934 L 81.598717 618.252237 C 82.309373 614.951521 80.18915 611.697707 76.888414 611.01763 C 73.581805 610.331691 70.339801 612.430548 69.652637 615.731264 L 62.481465 649.641284 C 61.982244 651.968787 59.938372 653.62794 57.547981 653.62794 C 55.280928 653.62794 53.278168 652.097767 52.708468 649.91097 Z M 41.83131 609.299851 " transform="matrix(0.665098,0,0,0.666285,330.092146,-24.049601)"/>
<path style="fill-rule:evenodd;fill:rgb(84.313725%,95.686275%,84.313725%);fill-opacity:1;stroke-width:3;stroke-linecap:round;stroke-linejoin:round;stroke:rgb(52.941176%,87.058824%,52.941176%);stroke-opacity:1;stroke-miterlimit:3;" d="M -0.00247417 636.697864 C 0.308805 600.589321 29.668909 571.480875 65.777315 571.480875 C 101.891594 571.480875 131.251699 600.589321 131.557105 636.697864 C 131.251699 672.81227 101.891594 701.920716 65.777315 701.920716 C 29.668909 701.920716 0.308805 672.81227 -0.00247417 636.697864 Z M -0.00247417 636.697864 " transform="matrix(0.665098,0,0,0.666285,72.193052,-12.991995)"/>
<path style="fill-rule:evenodd;fill:rgb(100%,100%,100%);fill-opacity:1;stroke-width:1.19531;stroke-linecap:butt;stroke-linejoin:miter;stroke:rgb(49.803922%,49.803922%,49.803922%);stroke-opacity:1;stroke-miterlimit:3;" d="M -0.00126616 641.420808 C -0.00126616 636.601645 3.910282 632.691205 8.720429 632.691205 L 52.070485 632.691205 C 58.760055 632.691205 65.009135 635.962608 68.809092 641.450121 L 89.429882 671.262095 C 91.802653 674.662477 93.04777 678.70776 93.04777 682.852708 L 93.04777 696.671159 C 93.04777 699.878071 90.451818 702.481123 87.23918 702.481123 L 69.789916 702.481123 C 66.571405 702.481123 63.969579 699.878071 63.969579 696.671159 L 63.969579 694.161911 L 49.779939 685.027781 L 20.349356 685.027781 C 15.539209 685.027781 11.627661 681.129066 11.627661 676.309904 C 11.627661 671.490741 15.539209 667.592027 20.349356 667.592027 L 43.618957 667.592027 C 48.429104 667.592027 52.340652 663.681587 52.340652 658.862424 C 52.340652 654.049124 48.429104 650.138685 43.618957 650.138685 L 8.720429 650.138685 C 3.910282 650.138685 -0.00126616 646.228245 -0.00126616 641.420808 Z M -0.00126616 641.420808 " transform="matrix(0.665098,0,0,0.666285,85.000842,-33.572417)"/>
</g>
</svg>
